<svg role="img" viewBox="0 0 24 24" xmlns="http://www.w3.org/2000/svg" id="Adobeindesign--Streamline-Simple-Icons" height="24" width="24"><desc>Adobeindesign Streamline Icon: https://streamlinehq.com</desc><title>Adobe InDesign</title><path d="M4.25 0.3C1.9 0.3 0 2.2 0 4.55v14.9c0 2.35 1.9 4.25 4.25 4.25h15.5c2.35 0 4.25 -1.9 4.25 -4.25V4.55C24 2.2 22.1 0.3 19.75 0.3zm11.31 5.13h2.03c0.05 -0.01 0.09 0.03 0.1 0.07v9.54c0 0.18 0.01 0.38 0.02 0.6 0.02 0.21 0.03 0.41 0.04 0.58 0 0.07 -0.03 0.13 -0.1 0.16 -0.52 0.22 -1.07 0.38 -1.63 0.48 -0.5 0.09 -1.02 0.14 -1.54 0.14 -0.74 0.01 -1.48 -0.14 -2.15 -0.45 -0.63 -0.29 -1.15 -0.77 -1.51 -1.36 -0.37 -0.61 -0.55 -1.37 -0.55 -2.28 -0.01 -0.74 0.18 -1.47 0.55 -2.11 0.38 -0.65 0.93 -1.19 1.59 -1.55 0.7 -0.39 1.54 -0.58 2.53 -0.58 0.05 0 0.12 0 0.21 0.01s0.19 0.01 0.31 0.02V5.54c0 -0.07 0.03 -0.11 0.1 -0.11zm-8.93 0.86h1.95c0.06 -0.01 0.12 0.03 0.13 0.1 0.01 0.01 0.01 0.02 0.01 0.03v10.26c0 0.11 -0.05 0.16 -0.14 0.16H6.62c-0.09 0 -0.13 -0.05 -0.13 -0.16V6.42c0 -0.09 0.05 -0.13 0.14 -0.13zm8.23 4.24c-0.39 0 -0.78 0.08 -1.13 0.26 -0.34 0.17 -0.63 0.42 -0.85 0.74 -0.22 0.32 -0.33 0.75 -0.33 1.27 -0.01 0.35 0.05 0.7 0.17 1.03 0.1 0.27 0.25 0.51 0.45 0.71 0.19 0.18 0.42 0.32 0.68 0.4 0.27 0.09 0.55 0.13 0.83 0.13 0.15 0 0.29 -0.01 0.42 -0.02 0.13 0.01 0.25 -0.01 0.36 -0.05v-4.4c-0.09 -0.02 -0.18 -0.04 -0.27 -0.05 -0.11 -0.01 -0.22 -0.02 -0.33 -0.02z" fill="#ad87b5" stroke-width="1"></path></svg>